<?xml version="1.0" encoding="UTF-8"?>
<svg id="Layer_2" data-name="Layer 2" xmlns="http://www.w3.org/2000/svg" viewBox="0 0 133.94 77.38">
  <defs>
    <style>
      .cls-1 {
        stroke-width: 0px;
      }
    </style>
  </defs>
  <g id="Layer_1-2" data-name="Layer 1">
    <path class="cls-1" d="M0,33.21V.06C.31.04.56,0,.81,0c4.54,0,9.08,0,13.63,0,2.24,0,4.36.47,6.12,1.97,3.76,3.21,3.79,9,.08,12.26-.29.26-.6.5-.97.81.27.12.46.22.66.29,4.23,1.45,6.72,5.25,6.18,9.44-.58,4.56-4.11,8.13-8.51,8.34-3.75.18-7.51.09-11.27.11-2.21.01-4.43,0-6.73,0Z"/>
    <path class="cls-1" d="M.04,35.31h8.05v14.44c.07.01.15.03.22.04,1.91-2.98,3.83-5.97,5.74-8.95,1.06-1.65,2.11-3.3,3.2-4.93.19-.28.58-.6.88-.61,2.71-.05,5.41-.03,8.28-.03-.18.35-.29.61-.44.84-3.01,4.62-6.02,9.25-9.07,13.85-.4.6-.15.94.15,1.37,3.35,4.71,6.7,9.42,10.05,14.13.22.31.42.64.7,1.08-.37.04-.61.09-.85.09-2.42,0-4.84-.03-7.25.03-.76.02-1.18-.27-1.59-.86-3.06-4.39-6.15-8.77-9.24-13.15-.18-.26-.37-.52-.73-1.03v14.98H.04v-31.31Z"/>
    <path class="cls-1" d="M77.29,66.65v10.72h-7.07v-33.31c.34-.02.68-.05,1.02-.06,2.87-.09,5.74-.16,8.61-.28,6.96-.29,12.66,5.86,11.83,12.8-.65,5.4-4.15,9.4-9.18,10.4-.85.17-1.75.21-2.63.17-.83-.04-1.65-.27-2.58-.43Z"/>
    <path class="cls-1" d="M50.59,22.07c-.02,6.54-5.13,11.84-11.37,11.8-6.34-.05-11.5-5.29-11.46-11.63.04-6.51,5.16-11.7,11.5-11.67,6.25.03,11.35,5.21,11.33,11.5Z"/>
    <path class="cls-1" d="M51.68,22.15c-.05-6.43,4.92-11.49,11.33-11.55,6.39-.05,11.44,5.01,11.49,11.51.05,6.53-4.95,11.63-11.43,11.67-6.3.04-11.34-5.11-11.39-11.64Z"/>
    <path class="cls-1" d="M98.93,33.2c-2.8,0-5.37.02-7.95-.03-.29,0-.64-.4-.84-.69-2.08-2.97-4.13-5.96-6.19-8.94-.29-.42-.58-.83-1.09-1.19v10.76h-6.91V.21h6.9v20.39c.08.03.16.05.24.08.25-.35.52-.7.76-1.07,1.79-2.65,3.59-5.3,5.37-7.96.34-.51.71-.74,1.35-.72,2.32.04,4.63.02,7.1.02-.16.28-.26.5-.39.69-2.1,2.96-4.19,5.92-6.32,8.85-.37.51-.36.85,0,1.36,2.44,3.43,4.85,6.89,7.27,10.34.18.26.36.53.69,1.02Z"/>
    <path class="cls-1" d="M33.38,57.13c1.4,3.34,4.83,4.96,8.55,3.89,1.72-.49,3.34-1.37,5.18-2.14-.4,1-.69,2.07-1.23,2.99-3.62,6.16-12.23,7.02-17.35,1.72-3.14-3.25-4.12-7.16-2.91-11.49,1.18-4.23,3.93-6.99,8.25-8.09,5.59-1.42,11.47,2.09,12.84,7.62.19.75.07,1.08-.72,1.33-3.92,1.24-7.82,2.54-11.73,3.83-.3.1-.59.22-.89.34Z"/>
    <path class="cls-1" d="M100.77,57.13c1.55,4.67,6.91,5.35,13.52,1.62-.38,1.08-.59,1.99-1,2.8-2.56,5.06-8.96,6.97-14.37,4.31-4.18-2.05-6.86-6.99-6.34-11.67.57-5.14,3.88-9.04,8.66-10.2,6-1.45,12.17,2.61,12.99,8.63-4.45,1.49-8.92,2.98-13.45,4.5Z"/>
    <path class="cls-1" d="M55.58,57.11c1.02,2.57,3.39,4.17,6.17,4.21,2.68.04,5.02-.95,7.18-2.49.1.07.2.13.3.2-.52,1.13-.89,2.35-1.57,3.37-4.39,6.54-14.32,6.13-18.43-.73-3.73-6.23-1.56-13.94,4.78-16.95,5.97-2.83,13.06.36,14.83,6.67.35,1.25.35,1.24-.85,1.63-3.85,1.25-7.69,2.51-11.54,3.77-.28.09-.55.2-.87.31Z"/>
    <path class="cls-1" d="M122.15,66.62h-6.99v-22.55h6.78v2.8c1.71-2.03,3.62-3.09,6-3.12,2.35-.03,4.29.93,5.99,2.67-1.08,1.57-2.15,3.12-3.13,4.54-1.25-.3-2.33-.73-3.44-.8-2.71-.18-4.66,1.45-5.05,4.13-.16,1.06-.14,2.15-.15,3.22-.02,3,0,6,0,9.1Z"/>
    <path class="cls-1" d="M127,63.8c.02-1.76,1.42-3.11,3.22-3.1,1.74.01,3.2,1.45,3.2,3.16,0,1.74-1.44,3.17-3.19,3.16-1.82,0-3.24-1.43-3.23-3.22Z"/>
  </g>
</svg>