<?xml version="1.0" encoding="UTF-8"?>
<svg id="Layer_2" data-name="Layer 2" xmlns="http://www.w3.org/2000/svg" viewBox="0 0 78.7 80.27">
  <defs>
    <style>
      .cls-1 {
        fill: #fff;
        stroke-width: 0px;
      }
    </style>
  </defs>
  <g id="Layer_1-2" data-name="Layer 1">
    <g>
      <path class="cls-1" d="M38.45,19.37c-.04,11.02-8.64,19.94-19.15,19.87C8.62,39.16-.07,30.33,0,19.65.07,8.69,8.68-.05,19.36,0c10.53.05,19.12,8.77,19.08,19.37Z"/>
      <path class="cls-1" d="M40.28,19.5C40.2,8.67,48.57.14,59.35.05c10.76-.09,19.27,8.44,19.35,19.39.08,10.99-8.34,19.59-19.25,19.65-10.6.07-19.09-8.61-19.17-19.6Z"/>
      <path class="cls-1" d="M15.22,63.51c2.36,5.62,8.13,8.35,14.41,6.55,2.9-.83,5.62-2.3,8.72-3.61-.68,1.68-1.16,3.49-2.07,5.03-6.1,10.37-20.59,11.83-29.22,2.9C1.77,68.92.13,62.34,2.16,55.04c1.98-7.12,6.62-11.77,13.88-13.62,9.41-2.39,19.31,3.52,21.63,12.84.32,1.27.12,1.82-1.21,2.24-6.6,2.09-13.17,4.28-19.75,6.44-.5.17-.99.38-1.49.57Z"/>
      <path class="cls-1" d="M52.6,63.49c1.71,4.33,5.71,7.02,10.38,7.09,4.52.07,8.46-1.6,12.09-4.19.17.11.33.22.5.33-.87,1.9-1.5,3.96-2.65,5.67-7.39,11.02-24.12,10.32-31.04-1.22-6.29-10.49-2.63-23.47,8.05-28.53,10.05-4.77,22,.61,24.98,11.24.59,2.1.59,2.09-1.43,2.75-6.48,2.11-12.95,4.22-19.43,6.34-.47.15-.92.33-1.46.53Z"/>
    </g>
  </g>
</svg>