<?xml version="1.0" encoding="UTF-8"?>
<svg id="Layer_2" data-name="Layer 2" xmlns="http://www.w3.org/2000/svg" viewBox="0 0 78.65 48.69">
  <defs>
    <style>
      .cls-1 {
        stroke-width: 0px;
      }
    </style>
  </defs>
  <g id="Layer_1-2" data-name="Layer 1">
    <g>
      <path class="cls-1" d="M0,19.46V0h1.72v8.07h.05c.34-.96.97-1.72,1.88-2.26.91-.54,1.91-.82,3-.82,2.03,0,3.6.71,4.69,2.13,1.09,1.42,1.63,3.19,1.63,5.31s-.54,3.9-1.63,5.31c-1.09,1.42-2.65,2.13-4.69,2.13-1.15,0-2.17-.27-3.07-.82-.9-.55-1.55-1.3-1.95-2.26h-.05v2.67H0ZM10.81,15.29c.3-.87.45-1.83.45-2.86s-.15-1.99-.45-2.86-.81-1.61-1.53-2.22c-.72-.61-1.59-.91-2.63-.91-1.67,0-2.91.59-3.72,1.76s-1.21,2.58-1.21,4.24.4,3.07,1.21,4.24,2.05,1.76,3.72,1.76c1.04,0,1.91-.3,2.63-.91.72-.61,1.23-1.35,1.53-2.22Z"/>
      <path class="cls-1" d="M16.71,7.13c1.18-1.43,2.81-2.14,4.88-2.14s3.7.71,4.88,2.14c1.18,1.43,1.77,3.19,1.77,5.3s-.59,3.87-1.77,5.3c-1.18,1.43-2.81,2.14-4.88,2.14s-3.7-.71-4.88-2.14c-1.18-1.43-1.77-3.19-1.77-5.3s.59-3.87,1.77-5.3ZM25.21,8.22c-.87-1.19-2.08-1.79-3.62-1.79s-2.75.6-3.62,1.79-1.31,2.59-1.31,4.21.44,3.02,1.31,4.21c.87,1.19,2.08,1.79,3.62,1.79s2.75-.59,3.62-1.79c.87-1.19,1.31-2.59,1.31-4.21s-.44-3.02-1.31-4.21Z"/>
      <path class="cls-1" d="M31.86,7.13c1.18-1.43,2.81-2.14,4.88-2.14s3.7.71,4.88,2.14c1.18,1.43,1.77,3.19,1.77,5.3s-.59,3.87-1.77,5.3-2.81,2.14-4.88,2.14-3.7-.71-4.88-2.14c-1.18-1.43-1.77-3.19-1.77-5.3s.59-3.87,1.77-5.3ZM40.36,8.22c-.87-1.19-2.08-1.79-3.62-1.79s-2.75.6-3.62,1.79-1.31,2.59-1.31,4.21.44,3.02,1.31,4.21c.87,1.19,2.08,1.79,3.62,1.79s2.75-.59,3.62-1.79c.87-1.19,1.31-2.59,1.31-4.21s-.44-3.02-1.31-4.21Z"/>
      <path class="cls-1" d="M45.95,19.46V0h1.72v12.21l7.79-6.81h2.29l-6,5.21,6.41,8.86h-2.15l-5.56-7.66-2.78,2.32v5.34h-1.72Z"/>
      <path class="cls-1" d="M0,43.48v-19.46h1.72v12.21l7.79-6.81h2.29l-6,5.21,6.41,8.86h-2.15l-5.56-7.66-2.78,2.32v5.34H0Z"/>
      <path class="cls-1" d="M25.45,36.92h-10.82c0,1.44.4,2.72,1.19,3.84.79,1.13,1.94,1.69,3.45,1.69,2.34,0,3.82-1.2,4.42-3.6h1.72c-.78,3.36-2.83,5.04-6.13,5.04-2.11,0-3.69-.7-4.75-2.1-1.06-1.4-1.59-3.18-1.59-5.34,0-1.31.21-2.5.63-3.58.42-1.08,1.12-1.99,2.11-2.74.99-.74,2.19-1.12,3.61-1.12s2.64.39,3.61,1.17,1.66,1.75,2.06,2.92.57,2.43.52,3.82ZM14.63,35.47h9.1c-.04-1.36-.46-2.54-1.28-3.53-.82-.99-1.88-1.49-3.19-1.49s-2.39.49-3.19,1.46c-.8.97-1.28,2.16-1.44,3.56Z"/>
      <path class="cls-1" d="M39.6,36.92h-10.82c0,1.44.4,2.72,1.19,3.84.79,1.13,1.94,1.69,3.45,1.69,2.34,0,3.82-1.2,4.42-3.6h1.72c-.78,3.36-2.83,5.04-6.13,5.04-2.11,0-3.69-.7-4.75-2.1-1.06-1.4-1.59-3.18-1.59-5.34,0-1.31.21-2.5.63-3.58.42-1.08,1.12-1.99,2.11-2.74.99-.74,2.19-1.12,3.61-1.12s2.64.39,3.61,1.17,1.66,1.75,2.06,2.92.57,2.43.52,3.82ZM28.78,35.47h9.1c-.04-1.36-.46-2.54-1.28-3.53-.82-.99-1.88-1.49-3.19-1.49s-2.39.49-3.19,1.46c-.8.97-1.28,2.16-1.44,3.56Z"/>
      <path class="cls-1" d="M41.92,48.69v-19.27h1.58v2.67h.05c.4-.96,1.05-1.72,1.95-2.26s1.92-.82,3.07-.82c2.03,0,3.6.71,4.69,2.13,1.09,1.42,1.63,3.19,1.63,5.31s-.54,3.9-1.63,5.31c-1.09,1.42-2.65,2.13-4.69,2.13-1.09,0-2.09-.27-3-.8-.91-.54-1.54-1.29-1.88-2.28h-.05v7.88h-1.72ZM52.72,39.31c.3-.87.45-1.83.45-2.86s-.15-1.99-.45-2.86-.81-1.61-1.53-2.22c-.72-.61-1.59-.91-2.63-.91-3.29,0-4.93,2-4.93,6,0,1.65.4,3.07,1.21,4.24s2.05,1.76,3.72,1.76c1.04,0,1.91-.3,2.63-.91.72-.61,1.23-1.35,1.53-2.22Z"/>
      <path class="cls-1" d="M69.39,36.92h-10.82c0,1.44.4,2.72,1.19,3.84.79,1.13,1.94,1.69,3.45,1.69,2.34,0,3.82-1.2,4.42-3.6h1.72c-.78,3.36-2.83,5.04-6.13,5.04-2.11,0-3.69-.7-4.75-2.1-1.06-1.4-1.59-3.18-1.59-5.34,0-1.31.21-2.5.63-3.58.42-1.08,1.12-1.99,2.11-2.74.99-.74,2.19-1.12,3.61-1.12s2.64.39,3.61,1.17,1.66,1.75,2.06,2.92.57,2.43.52,3.82ZM58.57,35.47h9.1c-.04-1.36-.46-2.54-1.28-3.53-.82-.99-1.88-1.49-3.19-1.49s-2.39.49-3.19,1.46c-.8.97-1.28,2.16-1.44,3.56Z"/>
      <path class="cls-1" d="M71.7,43.48v-14.06h1.58v3.3h.05c.44-1.16,1.12-2.05,2.04-2.66.93-.61,2.02-.89,3.27-.83v1.72c-1.53-.07-2.78.38-3.76,1.35-.98.97-1.47,2.2-1.47,3.69v7.49h-1.72Z"/>
    </g>
  </g>
</svg>